<?xml version="1.0" encoding="UTF-8" standalone="no"?>
<svg
   xmlns:dc="http://purl.org/dc/elements/1.1/"
   xmlns:cc="http://creativecommons.org/ns#"
   xmlns:rdf="http://www.w3.org/1999/02/22-rdf-syntax-ns#"
   xmlns:svg="http://www.w3.org/2000/svg"
   xmlns="http://www.w3.org/2000/svg"
   viewBox="0 0 128.50388 154.96001"
   height="154.96001"
   width="128.50388"
   xml:space="preserve"
   id="svg2"
   version="1.1"><metadata
     id="metadata8"><rdf:RDF><cc:Work
         rdf:about=""><dc:format>image/svg+xml</dc:format><dc:type
           rdf:resource="http://purl.org/dc/dcmitype/StillImage" /></cc:Work></rdf:RDF></metadata><defs
     id="defs6"><clipPath
       id="clipPath18"
       clipPathUnits="userSpaceOnUse"><path
         id="path16"
         d="M 0,116.22 H 96.378 V 0 H 0 Z" /></clipPath><clipPath
       id="clipPath30"
       clipPathUnits="userSpaceOnUse"><path
         id="path28"
         d="M 0,116.22 H 96.378 V 0 H 0 Z" /></clipPath></defs><g
     transform="matrix(1.3333333,0,0,-1.3333333,0,154.96)"
     id="g10"><g
       id="g12"><g
         clip-path="url(#clipPath18)"
         id="g14"><g
           transform="translate(48.2058,109.1375)"
           id="g20"><path
             id="path22"
             style="fill:none;stroke-width:0.28299999;stroke-linecap:butt;stroke-linejoin:miter;stroke-miterlimit:10;stroke-dasharray:none;stroke-opacity:1"
             d="m 0,0 c -3.86,0 -7.236,-2.599 -8.222,-6.331 -1.11,-4.203 -6.218,-9.309 -11.158,-14.247 -9.67,-9.664 -21.666,-21.652 -21.666,-40.417 0,-22.636 18.413,-41.052 41.046,-41.052 22.632,0 41.046,18.415 41.047,41.051 0,18.77 -12.001,30.761 -21.645,40.395 C 14.444,-15.645 9.333,-10.536 8.222,-6.332 7.236,-2.6 3.86,0 0,0 Z" /></g></g></g><g
       id="g24"><g
         clip-path="url(#clipPath30)"
         id="g26"><g
           transform="translate(61.5977,82.5206)"
           id="g32"><path
             id="path34"
             style="fill:#ffffff;fill-opacity:1;fill-rule:nonzero;stroke:none"
             d="M 0,0 C -5.984,5.981 -11.693,11.683 -13.392,18.113 -15.091,11.683 -20.801,5.981 -26.784,0 c -8.975,-8.969 -19.15,-19.133 -19.15,-34.378 0,-17.948 14.598,-32.548 32.542,-32.548 17.947,0 32.542,14.599 32.543,32.548 C 19.151,-19.134 8.977,-8.969 0,0 m 1.579,-34.605 -6.003,6.003 -5.789,-5.789 11.413,-11.413 -3.184,-3.184 -11.413,11.413 -11.413,-11.413 -3.184,3.184 11.413,11.413 -5.272,5.273 -4.172,-4.172 -4.87,4.87 4.172,4.172 -0.495,0.495 3.184,3.183 0.495,-0.494 4.354,4.354 4.87,-4.87 -4.354,-4.355 5.272,-5.272 5.789,5.789 -3.913,3.913 5.059,5.059 3.913,-3.913 0.565,0.565 3.184,-3.184 -0.565,-0.565 2.001,-2.001 z" /></g></g></g></g></svg>
